<svg
  xmlns="http://www.w3.org/2000/svg"
  fill="#000000"
  height="24px"
  width="24px"
  viewBox="0 0 24 24"
  version="1.1"
>
  <g id="SVGRepo_bgCarrier" stroke-width="0"></g>
  <g
    id="SVGRepo_tracerCarrier"
    stroke-linecap="round"
    stroke-linejoin="round"
  ></g>
  <g id="SVGRepo_iconCarrier">
    <g id="Airplane">
      <path
        fill-rule="evenodd"
        clip-rule="evenodd"
        d="M19.52 14.84C19.02 14.67 18.53 14.67 18.03 14.84L14.62 15.98L9.03001 10.39L10.22 6.97999C10.38 6.47999 10.38 5.98001 10.22 5.48001C10.05 4.98001 9.74 4.57001 9.34 4.31999L7.66001 3.24001C7.22001 2.96001 6.71001 2.88001 6.21001 3.00001C5.70001 3.12001 5.25001 3.44001 4.98001 3.88001L3.51001 6.39999C3.17001 6.97999 3.08001 7.67001 3.26001 8.32001C3.41001 8.77001 3.72001 9.16001 4.15001 9.37001L8.00001 11.2L5.82001 12.56L4.37001 11.74C3.67001 11.35 2.77001 11.45 2.16001 12C1.82001 12.3 1.59001 12.71 1.50001 13.18C1.41001 13.65 1.50001 14.13 1.75001 14.54L3.45001 17.29C3.67001 17.67 4.01001 17.94 4.42001 18.03C4.83001 18.12 5.25001 18.03 5.62001 17.77L7.33001 16.65L9.14001 20.5C9.34001 20.94 9.71001 21.3 10.19 21.49C10.54 21.63 10.9 21.7 11.25 21.7C11.7 21.7 12.15 21.58 12.55 21.33L15.08 19.87C15.54 19.6 15.86 19.16 16 18.64L16.83 16.16L18.03 15.76L18.03 15.77C18.61 15.57 19.09 15.14 19.37 14.62C19.62 14.18 19.63 13.67 19.52 14.84Z"
      ></path>
    </g>
  </g>
</svg>
